# xmcd
#
# Track frame offsets:
# 150
# 23550
# 47027
# 71954
# 89470
# 113371
# 151964
# 170691
# 185955
# 208631
# 234150
#
# Disc length: 3428 seconds
#
#
# Revision: 0
# Processed by: cddbd v1.5.1PL2 Copyright (c) Steve Scherf et al.
# Submitted via: FreeRIP 2.945 
#
DISCID=8f0d620b
DTITLE=Big Foot Bob and The Toetappers - that about covers it
DYEAR=2004
DGENRE=Blues
TTITLE0=paul b allen
TTITLE1=cripple creek
TTITLE2=done changed my way of living
TTITLE3=turn on your love-light
TTITLE4=hide your love away
TTITLE5=compared to what
TTITLE6=aint nobody gonna steal my jelly roll
TTITLE7=flip, flop and fly
TTITLE8=georgia on my mind
TTITLE9=third rate romance
TTITLE10=cocaine habit blues
EXTD=
EXTT0=
EXTT1=
EXTT2=
EXTT3=
EXTT4=
EXTT5=
EXTT6=
EXTT7=
EXTT8=
EXTT9=
EXTT10=
PLAYORDER=
